<svg width="375" height="812" viewBox="0 0 375 812" fill="none" xmlns="http://www.w3.org/2000/svg">
<rect width="375" height="812" fill="#1FCC79"/>
<path d="M85.6332 217.636H99.2866L113.707 252.818H114.321L128.741 217.636H142.395V270H131.656V235.918H131.221L117.67 269.744H110.358L96.8065 235.79H96.3718V270H85.6332V217.636ZM161.042 270H149.178L167.255 217.636H181.522L199.573 270H187.709L174.593 229.602H174.184L161.042 270ZM160.3 249.418H188.323V258.06H160.3V249.418ZM206.375 270V217.636H227.034C230.989 217.636 234.364 218.344 237.159 219.759C239.972 221.156 242.111 223.142 243.577 225.716C245.06 228.273 245.801 231.281 245.801 234.741C245.801 238.219 245.051 241.21 243.551 243.716C242.051 246.205 239.878 248.114 237.032 249.443C234.202 250.773 230.776 251.438 226.753 251.438H212.921V242.54H224.963C227.077 242.54 228.833 242.25 230.23 241.67C231.628 241.091 232.668 240.222 233.35 239.062C234.049 237.903 234.398 236.463 234.398 234.741C234.398 233.003 234.049 231.537 233.35 230.344C232.668 229.151 231.62 228.247 230.205 227.634C228.807 227.003 227.043 226.688 224.912 226.688H217.446V270H206.375ZM234.654 246.17L247.668 270H235.446L222.713 246.17H234.654ZM263.023 230.727L270.233 244.457L277.623 230.727H288.796L277.418 250.364L289.103 270H277.98L270.233 256.423L262.614 270H251.364L263.023 250.364L251.773 230.727H263.023Z" fill="white"/>
<path d="M115.604 292.792V290.636H125.758V292.792H121.973V303H119.389V292.792H115.604ZM128.55 303H125.749L130.017 290.636H133.386L137.648 303H134.847L131.75 293.462H131.653L128.55 303ZM128.375 298.14H134.992V300.181H128.375V298.14ZM147.253 294.633C147.169 294.339 147.05 294.079 146.897 293.854C146.744 293.625 146.557 293.431 146.336 293.275C146.118 293.114 145.869 292.991 145.587 292.906C145.309 292.822 145.001 292.779 144.663 292.779C144.031 292.779 143.476 292.936 142.997 293.25C142.522 293.564 142.152 294.021 141.886 294.621C141.621 295.216 141.488 295.945 141.488 296.806C141.488 297.667 141.619 298.4 141.88 299.004C142.142 299.607 142.512 300.068 142.991 300.386C143.47 300.7 144.036 300.857 144.688 300.857C145.279 300.857 145.784 300.752 146.203 300.543C146.625 300.33 146.947 300.03 147.169 299.643C147.394 299.257 147.507 298.8 147.507 298.273L148.038 298.352H144.85V296.384H150.024V297.941C150.024 299.028 149.795 299.961 149.336 300.742C148.877 301.519 148.245 302.119 147.44 302.541C146.635 302.96 145.714 303.169 144.675 303.169C143.516 303.169 142.498 302.913 141.621 302.402C140.743 301.887 140.059 301.157 139.568 300.211C139.081 299.261 138.838 298.134 138.838 296.83C138.838 295.828 138.983 294.935 139.272 294.15C139.566 293.361 139.977 292.693 140.504 292.146C141.031 291.598 141.645 291.182 142.345 290.896C143.045 290.61 143.804 290.467 144.621 290.467C145.321 290.467 145.973 290.57 146.577 290.775C147.181 290.976 147.716 291.262 148.183 291.632C148.654 292.003 149.038 292.443 149.336 292.955C149.634 293.462 149.825 294.021 149.909 294.633H147.253ZM151.486 292.792V290.636H161.64V292.792H157.854V303H155.271V292.792H151.486ZM164.432 303H161.631L165.899 290.636H169.268L173.53 303H170.729L167.632 293.462H167.535L164.432 303ZM164.257 298.14H170.874V300.181H164.257V298.14ZM183.135 294.633C183.051 294.339 182.932 294.079 182.779 293.854C182.626 293.625 182.439 293.431 182.217 293.275C182 293.114 181.751 292.991 181.469 292.906C181.191 292.822 180.883 292.779 180.545 292.779C179.913 292.779 179.358 292.936 178.879 293.25C178.404 293.564 178.034 294.021 177.768 294.621C177.503 295.216 177.37 295.945 177.37 296.806C177.37 297.667 177.501 298.4 177.762 299.004C178.024 299.607 178.394 300.068 178.873 300.386C179.352 300.7 179.917 300.857 180.569 300.857C181.161 300.857 181.666 300.752 182.085 300.543C182.507 300.33 182.829 300.03 183.051 299.643C183.276 299.257 183.389 298.8 183.389 298.273L183.92 298.352H180.732V296.384H185.906V297.941C185.906 299.028 185.677 299.961 185.218 300.742C184.759 301.519 184.127 302.119 183.322 302.541C182.517 302.96 181.596 303.169 180.557 303.169C179.398 303.169 178.38 302.913 177.503 302.402C176.625 301.887 175.941 301.157 175.45 300.211C174.963 299.261 174.72 298.134 174.72 296.83C174.72 295.828 174.864 294.935 175.154 294.15C175.448 293.361 175.859 292.693 176.386 292.146C176.913 291.598 177.527 291.182 178.227 290.896C178.927 290.61 179.686 290.467 180.503 290.467C181.203 290.467 181.855 290.57 182.459 290.775C183.063 290.976 183.598 291.262 184.065 291.632C184.536 292.003 184.92 292.443 185.218 292.955C185.516 293.462 185.707 294.021 185.791 294.633H183.135ZM187.367 292.792V290.636H197.521V292.792H193.736V303H191.153V292.792H187.367ZM200.314 303H197.513L201.781 290.636H205.15L209.412 303H206.611L203.514 293.462H203.417L200.314 303ZM200.139 298.14H206.755V300.181H200.139V298.14ZM219.017 294.633C218.932 294.339 218.814 294.079 218.661 293.854C218.508 293.625 218.321 293.431 218.099 293.275C217.882 293.114 217.632 292.991 217.351 292.906C217.073 292.822 216.765 292.779 216.427 292.779C215.795 292.779 215.24 292.936 214.761 293.25C214.286 293.564 213.916 294.021 213.65 294.621C213.384 295.216 213.252 295.945 213.252 296.806C213.252 297.667 213.382 298.4 213.644 299.004C213.906 299.607 214.276 300.068 214.755 300.386C215.234 300.7 215.799 300.857 216.451 300.857C217.043 300.857 217.548 300.752 217.966 300.543C218.389 300.33 218.711 300.03 218.932 299.643C219.158 299.257 219.27 298.8 219.27 298.273L219.802 298.352H216.614V296.384H221.788V297.941C221.788 299.028 221.558 299.961 221.1 300.742C220.641 301.519 220.009 302.119 219.204 302.541C218.399 302.96 217.477 303.169 216.439 303.169C215.28 303.169 214.262 302.913 213.384 302.402C212.507 301.887 211.823 301.157 211.332 300.211C210.845 299.261 210.601 298.134 210.601 296.83C210.601 295.828 210.746 294.935 211.036 294.15C211.33 293.361 211.74 292.693 212.268 292.146C212.795 291.598 213.409 291.182 214.109 290.896C214.809 290.61 215.568 290.467 216.385 290.467C217.085 290.467 217.737 290.57 218.341 290.775C218.944 290.976 219.48 291.262 219.947 291.632C220.417 292.003 220.802 292.443 221.1 292.955C221.397 293.462 221.589 294.021 221.673 294.633H219.017ZM224.251 303V290.636H226.865V300.845H232.166V303H224.251ZM237.011 290.636V303H234.397V290.636H237.011ZM250.003 290.636V303H247.745L242.366 295.218H242.275V303H239.661V290.636H241.956L247.292 298.412H247.401V290.636H250.003ZM252.662 303V290.636H260.993V292.792H255.276V295.738H260.565V297.893H255.276V300.845H261.018V303H252.662Z" fill="white"/>
</svg>
